<svg width="28" height="21" viewBox="0 0 28 21" fill="none" xmlns="http://www.w3.org/2000/svg">
<path d="M26.893 0V1.54042C24.6357 2.33683 22.8667 3.59431 21.586 5.31287C20.3054 7.01048 19.6651 8.78144 19.6651 10.6257C19.6651 11.024 19.7302 11.3174 19.8605 11.506C19.9473 11.6317 20.045 11.6946 20.1535 11.6946C20.262 11.6946 20.4248 11.6213 20.6419 11.4746C21.3364 10.9925 22.2155 10.7515 23.2791 10.7515C24.5163 10.7515 25.6124 11.244 26.5674 12.229C27.5225 13.1931 28 14.3458 28 15.6871C28 17.0913 27.4465 18.3278 26.3395 19.3967C25.2543 20.4656 23.9302 21 22.3674 21C20.5442 21 18.9705 20.2769 17.6465 18.8308C16.3225 17.3847 15.6605 15.4461 15.6605 13.015C15.6605 10.1856 16.5612 7.6497 18.3628 5.40719C20.1643 3.16467 23.0078 1.36228 26.893 0ZM11.2326 0V1.54042C8.97519 2.33683 7.2062 3.59431 5.92558 5.31287C4.64496 7.01048 4.00465 8.78144 4.00465 10.6257C4.00465 11.024 4.06977 11.3174 4.2 11.506C4.28682 11.6317 4.3845 11.6946 4.49302 11.6946C4.60155 11.6946 4.76434 11.6213 4.9814 11.4746C5.67597 10.9925 6.55504 10.7515 7.6186 10.7515C8.85581 10.7515 9.95194 11.244 10.907 12.229C11.862 13.1931 12.3395 14.3458 12.3395 15.6871C12.3395 17.0913 11.786 18.3278 10.6791 19.3967C9.5938 20.4656 8.26977 21 6.70698 21C4.88372 21 3.31008 20.2769 1.98605 18.8308C0.662015 17.3847 0 15.4461 0 13.015C0 10.1856 0.900775 7.6497 2.70233 5.40719C4.50388 3.16467 7.34729 1.36228 11.2326 0Z" fill="#007481"/>
</svg>
