<svg width="52" height="16" viewBox="0 0 52 16" fill="none" xmlns="http://www.w3.org/2000/svg">
<g clip-path="url(#clip0_220_748)">
<path d="M14.5145 16L13.0467 13.1192L8.11515 3.40007L3.18361 13.1192L1.71582 16H0L1.04175 13.9553L8.11515 0L15.1886 13.9523L16.2303 16H14.5145Z" fill="black"/>
<path d="M20.5694 0L19.0316 0L19.0316 16H20.5694L20.5694 0Z" fill="black"/>
<path d="M28.4307 16C27.6578 16.0033 26.895 15.8234 26.2042 15.4749C25.1981 14.9723 24.3878 14.1463 23.9019 13.128C23.5497 12.4289 23.3676 11.6557 23.3708 10.872V-0.0117188L24.9086 -0.0117188V11.2798V11.3414C25.016 12.1213 25.3737 12.8446 25.9272 13.4016C26.4807 13.9586 27.1998 14.3188 27.9755 14.4276H28.0368L36.4058 14.4511V16L28.4307 16Z" fill="black"/>
<path d="M52 14.4531L39.213 14.4531V15.9991L52 15.9991V14.4531Z" fill="black"/>
<path d="M52 7.22852L39.213 7.22852V8.77454L52 8.77454V7.22852Z" fill="black"/>
<path d="M52 0L39.213 0V1.54602L52 1.54602V0Z" fill="black"/>
</g>
<defs>
<clipPath id="clip0_220_748">
<rect width="52" height="16" fill="white"/>
</clipPath>
</defs>
</svg>
