<svg width="596" height="59" viewBox="0 0 596 59" fill="none" xmlns="http://www.w3.org/2000/svg">
<path d="M14.9392 58L18.7514 45.9282H38.4751L42.2873 58H56.6243L37.453 1.42541H19.7735L0.60221 58H14.9392ZM21.9834 35.7348L28.3923 15.4309H28.8343L35.2431 35.7348H21.9834ZM75.7602 1.42541H62.4453V58H75.7602V1.42541ZM84.164 58H121.153V47.116H97.4789V1.42541H84.164V58ZM127.992 58H167.191V47.116H141.307V35.1271H165.147V24.2707H141.307V12.3094H167.163V1.42541H127.992V58ZM231.002 21.8122H244.511C243.074 8.33149 233.047 0.65193 219.483 0.65193C204.4 0.65193 192.743 11.0663 192.743 29.7127C192.743 48.3039 204.152 58.7735 219.483 58.7735C234.814 58.7735 243.433 48.3867 244.511 38.3039L231.002 38.221C230.035 43.7735 225.809 47.0608 219.732 47.0608C211.582 47.0608 206.334 41.1215 206.334 29.7127C206.334 18.7182 211.472 12.3646 219.814 12.3646C226.113 12.3646 230.284 16.0111 231.002 21.8122ZM305.149 29.7127C305.149 11.0663 293.381 0.65193 278.242 0.65193C262.994 0.65193 251.336 11.0663 251.336 29.7127C251.336 48.2762 262.994 58.7735 278.242 58.7735C293.381 58.7735 305.149 48.3591 305.149 29.7127ZM264.928 29.7127C264.928 18.4696 269.983 12.3646 278.242 12.3646C286.502 12.3646 291.53 18.4696 291.53 29.7127C291.53 40.9558 286.502 47.0608 278.242 47.0608C269.983 47.0608 264.928 40.9558 264.928 29.7127ZM312.914 1.42541V58H325.87V22.6685H326.339L340.152 57.6685H348.522L362.334 22.8343H362.804V58H375.759V1.42541H359.268L344.654 37.0331H343.991L329.406 1.42541H312.914ZM384.242 58H397.557V40.2928H406.977C419.96 40.2928 427.944 32.5856 427.944 20.9282C427.944 9.38121 420.126 1.42541 407.364 1.42541H384.242V58ZM397.557 29.7403V12.2265H404.546C410.844 12.2265 414.159 15.5967 414.159 20.9282C414.159 26.232 410.844 29.7403 404.574 29.7403H397.557ZM439.47 58L443.283 45.9282H463.006L466.819 58H481.156L461.984 1.42541H444.305L425.133 58H439.47ZM446.515 35.7348L452.924 15.4309H453.366L459.774 35.7348H446.515ZM534.932 1.42541H521.645V34.6022H521.175L498.468 1.42541H486.977V58H500.291V24.768H500.651L523.606 58H534.932V1.42541ZM540.427 1.42541L561.118 38.884V58H574.35V38.884L595.068 1.42541H580.151L567.996 25.2099H567.499L555.344 1.42541H540.427Z" fill="#007481"/>
</svg>
