<svg width="596" height="59" viewBox="0 0 596 59" fill="none" xmlns="http://www.w3.org/2000/svg">
<path d="M14.9392 58V59H15.6721L15.8928 58.3011L14.9392 58ZM18.7514 45.9282V44.9282H18.0185L17.7978 45.627L18.7514 45.9282ZM38.4751 45.9282L39.4287 45.627L39.208 44.9282H38.4751V45.9282ZM42.2873 58L41.3337 58.3011L41.5544 59H42.2873V58ZM56.6243 58V59H58.019L57.5714 57.6791L56.6243 58ZM37.453 1.42541L38.4001 1.10447L38.17 0.425412H37.453V1.42541ZM19.7735 1.42541V0.425412H19.0565L18.8264 1.10447L19.7735 1.42541ZM0.60221 58L-0.344889 57.6791L-0.792513 59H0.60221V58ZM21.9834 35.7348L21.0298 35.4338L20.6191 36.7348H21.9834V35.7348ZM28.3923 15.4309V14.4309H27.6593L27.4386 15.1299L28.3923 15.4309ZM28.8343 15.4309L29.7879 15.1299L29.5672 14.4309H28.8343V15.4309ZM35.2431 35.7348V36.7348H36.6074L36.1967 35.4338L35.2431 35.7348ZM15.8928 58.3011L19.705 46.2293L17.7978 45.627L13.9856 57.6989L15.8928 58.3011ZM18.7514 46.9282H38.4751V44.9282H18.7514V46.9282ZM37.5216 46.2293L41.3337 58.3011L43.2409 57.6989L39.4287 45.627L37.5216 46.2293ZM42.2873 59H56.6243V57H42.2873V59ZM57.5714 57.6791L38.4001 1.10447L36.5059 1.74635L55.6772 58.3209L57.5714 57.6791ZM37.453 0.425412H19.7735V2.42541H37.453V0.425412ZM18.8264 1.10447L-0.344889 57.6791L1.54931 58.3209L20.7206 1.74635L18.8264 1.10447ZM0.60221 59H14.9392V57H0.60221V59ZM22.937 36.0358L29.3459 15.7319L27.4386 15.1299L21.0298 35.4338L22.937 36.0358ZM28.3923 16.4309H28.8343V14.4309H28.3923V16.4309ZM27.8806 15.7319L34.2895 36.0358L36.1967 35.4338L29.7879 15.1299L27.8806 15.7319ZM35.2431 34.7348H21.9834V36.7348H35.2431V34.7348ZM75.7602 1.42541H76.7602V0.425412H75.7602V1.42541ZM62.4453 1.42541V0.425412H61.4453V1.42541H62.4453ZM62.4453 58H61.4453V59H62.4453V58ZM75.7602 58V59H76.7602V58H75.7602ZM75.7602 0.425412H62.4453V2.42541H75.7602V0.425412ZM61.4453 1.42541V58H63.4453V1.42541H61.4453ZM62.4453 59H75.7602V57H62.4453V59ZM76.7602 58V1.42541H74.7602V58H76.7602ZM84.164 58H83.164V59H84.164V58ZM121.153 58V59H122.153V58H121.153ZM121.153 47.116H122.153V46.116H121.153V47.116ZM97.4789 47.116H96.4789V48.116H97.4789V47.116ZM97.4789 1.42541H98.4789V0.425412H97.4789V1.42541ZM84.164 1.42541V0.425412H83.164V1.42541H84.164ZM84.164 59H121.153V57H84.164V59ZM122.153 58V47.116H120.153V58H122.153ZM121.153 46.116H97.4789V48.116H121.153V46.116ZM98.4789 47.116V1.42541H96.4789V47.116H98.4789ZM97.4789 0.425412H84.164V2.42541H97.4789V0.425412ZM83.164 1.42541V58H85.164V1.42541H83.164ZM127.992 58H126.992V59H127.992V58ZM167.191 58V59H168.191V58H167.191ZM167.191 47.116H168.191V46.116H167.191V47.116ZM141.307 47.116H140.307V48.116H141.307V47.116ZM141.307 35.1271V34.1271H140.307V35.1271H141.307ZM165.147 35.1271V36.1271H166.147V35.1271H165.147ZM165.147 24.2707H166.147V23.2707H165.147V24.2707ZM141.307 24.2707H140.307V25.2707H141.307V24.2707ZM141.307 12.3094V11.3094H140.307V12.3094H141.307ZM167.163 12.3094V13.3094H168.163V12.3094H167.163ZM167.163 1.42541H168.163V0.425412H167.163V1.42541ZM127.992 1.42541V0.425412H126.992V1.42541H127.992ZM127.992 59H167.191V57H127.992V59ZM168.191 58V47.116H166.191V58H168.191ZM167.191 46.116H141.307V48.116H167.191V46.116ZM142.307 47.116V35.1271H140.307V47.116H142.307ZM141.307 36.1271H165.147V34.1271H141.307V36.1271ZM166.147 35.1271V24.2707H164.147V35.1271H166.147ZM165.147 23.2707H141.307V25.2707H165.147V23.2707ZM142.307 24.2707V12.3094H140.307V24.2707H142.307ZM141.307 13.3094H167.163V11.3094H141.307V13.3094ZM168.163 12.3094V1.42541H166.163V12.3094H168.163ZM167.163 0.425412H127.992V2.42541H167.163V0.425412ZM126.992 1.42541V58H128.992V1.42541H126.992ZM231.002 21.8122L230.01 21.935L230.119 22.8122H231.002V21.8122ZM244.511 21.8122V22.8122H245.623L245.505 21.7062L244.511 21.8122ZM244.511 38.3039L245.505 38.4101L245.622 37.3107L244.517 37.3039L244.511 38.3039ZM231.002 38.221L231.008 37.221L230.162 37.2158L230.017 38.0494L231.002 38.221ZM231.002 22.8122H244.511V20.8122H231.002V22.8122ZM245.505 21.7062C244.762 14.7295 241.782 9.19087 237.18 5.40454C232.587 1.62593 226.451 -0.34807 219.483 -0.34807V1.65193C226.078 1.65193 231.738 3.51771 235.909 6.94904C240.071 10.3727 242.823 15.4141 243.516 21.9181L245.505 21.7062ZM219.483 -0.34807C211.707 -0.34807 204.751 2.34061 199.74 7.49266C194.728 12.6455 191.743 20.1771 191.743 29.7127H193.743C193.743 20.6019 196.586 13.6031 201.174 8.88717C205.762 4.17043 212.176 1.65193 219.483 1.65193V-0.34807ZM191.743 29.7127C191.743 39.2154 194.662 46.7472 199.644 51.9092C204.626 57.072 211.585 59.7735 219.483 59.7735V57.7735C212.05 57.7735 205.638 55.2401 201.083 50.5204C196.527 45.7998 193.743 38.8012 193.743 29.7127H191.743ZM219.483 59.7735C235.343 59.7735 244.375 48.9833 245.505 38.4101L243.516 38.1976C242.491 47.7901 234.286 57.7735 219.483 57.7735V59.7735ZM244.517 37.3039L231.008 37.221L230.996 39.221L244.504 39.3038L244.517 37.3039ZM230.017 38.0494C229.572 40.6064 228.391 42.5869 226.667 43.9355C224.937 45.2891 222.59 46.0608 219.732 46.0608V48.0608C222.95 48.0608 225.755 47.1888 227.9 45.5106C230.051 43.8274 231.466 41.3881 231.988 38.3925L230.017 38.0494ZM219.732 46.0608C215.921 46.0608 212.875 44.6847 210.757 42.04C208.616 39.3656 207.334 35.2794 207.334 29.7127H205.334C205.334 35.5549 206.676 40.1427 209.196 43.2901C211.74 46.4672 215.393 48.0608 219.732 48.0608V46.0608ZM207.334 29.7127C207.334 24.3565 208.587 20.2643 210.732 17.5335C212.853 14.833 215.923 13.3646 219.814 13.3646V11.3646C215.364 11.3646 211.693 13.0731 209.159 16.298C206.65 19.4926 205.334 24.0745 205.334 29.7127H207.334ZM219.814 13.3646C222.769 13.3646 225.143 14.2172 226.852 15.674C228.558 17.1283 229.677 19.25 230.01 21.935L231.995 21.6893C231.609 18.5732 230.284 15.9711 228.15 14.152C226.019 12.3353 223.159 11.3646 219.814 11.3646V13.3646ZM306.149 29.7127C306.149 20.1744 303.134 12.6422 298.087 7.49009C293.041 2.33959 286.045 -0.34807 278.242 -0.34807V1.65193C285.579 1.65193 292.035 4.17145 296.658 8.88974C301.279 13.6064 304.149 20.6046 304.149 29.7127H306.149ZM278.242 -0.34807C270.387 -0.34807 263.389 2.33872 258.356 7.49112C253.322 12.6445 250.336 20.1771 250.336 29.7127H252.336C252.336 20.6019 255.18 13.6041 259.787 8.88871C264.394 4.17232 270.85 1.65193 278.242 1.65193V-0.34807ZM250.336 29.7127C250.336 39.2079 253.322 46.7396 258.355 51.9025C263.387 57.0645 270.384 59.7735 278.242 59.7735V57.7735C270.852 57.7735 264.396 55.2338 259.787 50.5064C255.179 45.7797 252.336 38.781 252.336 29.7127H250.336ZM278.242 59.7735C286.045 59.7735 293.041 57.0858 298.087 51.9353C303.134 46.7832 306.149 39.251 306.149 29.7127H304.149C304.149 38.8208 301.279 45.819 296.658 50.5357C292.035 55.254 285.579 57.7735 278.242 57.7735V59.7735ZM265.928 29.7127C265.928 24.2241 267.164 20.1347 269.275 17.4391C271.36 14.7771 274.383 13.3646 278.242 13.3646V11.3646C273.842 11.3646 270.208 13.0047 267.7 16.2059C265.219 19.3736 263.928 23.9582 263.928 29.7127H265.928ZM278.242 13.3646C282.101 13.3646 285.117 14.7768 287.195 17.438C289.3 20.1334 290.53 24.223 290.53 29.7127H292.53C292.53 23.9594 291.246 19.3749 288.772 16.207C286.271 13.005 282.643 11.3646 278.242 11.3646V13.3646ZM290.53 29.7127C290.53 35.2025 289.3 39.292 287.195 41.9874C285.117 44.6486 282.101 46.0608 278.242 46.0608V48.0608C282.643 48.0608 286.271 46.4204 288.772 43.2184C291.246 40.0505 292.53 35.466 292.53 29.7127H290.53ZM278.242 46.0608C274.383 46.0608 271.36 44.6484 269.275 41.9863C267.164 39.2907 265.928 35.2013 265.928 29.7127H263.928C263.928 35.4672 265.219 40.0519 267.7 43.2195C270.208 46.4207 273.842 48.0608 278.242 48.0608V46.0608ZM312.914 1.42541V0.425412H311.914V1.42541H312.914ZM312.914 58H311.914V59H312.914V58ZM325.87 58V59H326.87V58H325.87ZM325.87 22.6685V21.6685H324.87V22.6685H325.87ZM326.339 22.6685L327.27 22.3014L327.02 21.6685H326.339V22.6685ZM340.152 57.6685L339.221 58.0356L339.471 58.6685H340.152V57.6685ZM348.522 57.6685V58.6685H349.201L349.451 58.0371L348.522 57.6685ZM362.334 22.8343V21.8343H361.655L361.404 22.4657L362.334 22.8343ZM362.804 22.8343H363.804V21.8343H362.804V22.8343ZM362.804 58H361.804V59H362.804V58ZM375.759 58V59H376.759V58H375.759ZM375.759 1.42541H376.759V0.425412H375.759V1.42541ZM359.268 1.42541V0.425412H358.597L358.342 1.04575L359.268 1.42541ZM344.654 37.0331V38.0331H345.325L345.579 37.4128L344.654 37.0331ZM343.991 37.0331L343.066 37.4122L343.32 38.0331H343.991V37.0331ZM329.406 1.42541L330.331 1.04636L330.077 0.425412H329.406V1.42541ZM311.914 1.42541V58H313.914V1.42541H311.914ZM312.914 59H325.87V57H312.914V59ZM326.87 58V22.6685H324.87V58H326.87ZM325.87 23.6685H326.339V21.6685H325.87V23.6685ZM325.409 23.0356L339.221 58.0356L341.082 57.3014L327.27 22.3014L325.409 23.0356ZM340.152 58.6685H348.522V56.6685H340.152V58.6685ZM349.451 58.0371L363.263 23.2028L361.404 22.4657L347.592 57.2999L349.451 58.0371ZM362.334 23.8343H362.804V21.8343H362.334V23.8343ZM361.804 22.8343V58H363.804V22.8343H361.804ZM362.804 59H375.759V57H362.804V59ZM376.759 58V1.42541H374.759V58H376.759ZM375.759 0.425412H359.268V2.42541H375.759V0.425412ZM358.342 1.04575L343.729 36.6535L345.579 37.4128L360.193 1.80508L358.342 1.04575ZM344.654 36.0331H343.991V38.0331H344.654V36.0331ZM344.917 36.6541L330.331 1.04636L328.48 1.80446L343.066 37.4122L344.917 36.6541ZM329.406 0.425412H312.914V2.42541H329.406V0.425412ZM384.242 58H383.242V59H384.242V58ZM397.557 58V59H398.557V58H397.557ZM397.557 40.2928V39.2928H396.557V40.2928H397.557ZM384.242 1.42541V0.425412H383.242V1.42541H384.242ZM397.557 29.7403H396.557V30.7403H397.557V29.7403ZM397.557 12.2265V11.2265H396.557V12.2265H397.557ZM384.242 59H397.557V57H384.242V59ZM398.557 58V40.2928H396.557V58H398.557ZM397.557 41.2928H406.977V39.2928H397.557V41.2928ZM406.977 41.2928C413.665 41.2928 419.17 39.305 423.012 35.7124C426.861 32.1138 428.944 26.994 428.944 20.9282H426.944C426.944 26.5198 425.035 31.0823 421.646 34.2516C418.25 37.427 413.272 39.2928 406.977 39.2928V41.2928ZM428.944 20.9282C428.944 14.9229 426.906 9.77414 423.135 6.12779C419.366 2.48349 413.955 0.425412 407.364 0.425412V2.42541C413.535 2.42541 418.414 4.34523 421.745 7.56558C425.073 10.7839 426.944 15.3865 426.944 20.9282H428.944ZM407.364 0.425412H384.242V2.42541H407.364V0.425412ZM383.242 1.42541V58H385.242V1.42541H383.242ZM398.557 29.7403V12.2265H396.557V29.7403H398.557ZM397.557 13.2265H404.546V11.2265H397.557V13.2265ZM404.546 13.2265C407.524 13.2265 409.653 14.0216 411.032 15.3089C412.402 16.5881 413.159 18.4736 413.159 20.9282H415.159C415.159 18.0513 414.259 15.586 412.397 13.8471C410.544 12.1165 407.867 11.2265 404.546 11.2265V13.2265ZM413.159 20.9282C413.159 23.3688 412.402 25.2875 411.027 26.6C409.648 27.917 407.526 28.7403 404.574 28.7403V30.7403C407.892 30.7403 410.562 29.8095 412.409 28.0464C414.259 26.2788 415.159 23.7914 415.159 20.9282H413.159ZM404.574 28.7403H397.557V30.7403H404.574V28.7403ZM439.47 58V59H440.203L440.424 58.3011L439.47 58ZM443.283 45.9282V44.9282H442.55L442.329 45.627L443.283 45.9282ZM463.006 45.9282L463.96 45.627L463.739 44.9282H463.006V45.9282ZM466.819 58L465.865 58.3011L466.086 59H466.819V58ZM481.156 58V59H482.55L482.103 57.6791L481.156 58ZM461.984 1.42541L462.931 1.10447L462.701 0.425412H461.984V1.42541ZM444.305 1.42541V0.425412H443.588L443.358 1.10447L444.305 1.42541ZM425.133 58L424.186 57.6791L423.739 59H425.133V58ZM446.515 35.7348L445.561 35.4338L445.15 36.7348H446.515V35.7348ZM452.924 15.4309V14.4309H452.191L451.97 15.1299L452.924 15.4309ZM453.366 15.4309L454.319 15.1299L454.098 14.4309H453.366V15.4309ZM459.774 35.7348V36.7348H461.139L460.728 35.4338L459.774 35.7348ZM440.424 58.3011L444.236 46.2293L442.329 45.627L438.517 57.6989L440.424 58.3011ZM443.283 46.9282H463.006V44.9282H443.283V46.9282ZM462.053 46.2293L465.865 58.3011L467.772 57.6989L463.96 45.627L462.053 46.2293ZM466.819 59H481.156V57H466.819V59ZM482.103 57.6791L462.931 1.10447L461.037 1.74635L480.208 58.3209L482.103 57.6791ZM461.984 0.425412H444.305V2.42541H461.984V0.425412ZM443.358 1.10447L424.186 57.6791L426.081 58.3209L445.252 1.74635L443.358 1.10447ZM425.133 59H439.47V57H425.133V59ZM447.468 36.0358L453.877 15.7319L451.97 15.1299L445.561 35.4338L447.468 36.0358ZM452.924 16.4309H453.366V14.4309H452.924V16.4309ZM452.412 15.7319L458.821 36.0358L460.728 35.4338L454.319 15.1299L452.412 15.7319ZM459.774 34.7348H446.515V36.7348H459.774V34.7348ZM534.932 1.42541H535.932V0.425412H534.932V1.42541ZM521.645 1.42541V0.425412H520.645V1.42541H521.645ZM521.645 34.6022V35.6022H522.645V34.6022H521.645ZM521.175 34.6022L520.35 35.167L520.648 35.6022H521.175V34.6022ZM498.468 1.42541L499.293 0.860605L498.996 0.425412H498.468V1.42541ZM486.977 1.42541V0.425412H485.977V1.42541H486.977ZM486.977 58H485.977V59H486.977V58ZM500.291 58V59H501.291V58H500.291ZM500.291 24.768V23.768H499.291V24.768H500.291ZM500.651 24.768L501.473 24.1996L501.175 23.768H500.651V24.768ZM523.606 58L522.784 58.5684L523.082 59H523.606V58ZM534.932 58V59H535.932V58H534.932ZM534.932 0.425412H521.645V2.42541H534.932V0.425412ZM520.645 1.42541V34.6022H522.645V1.42541H520.645ZM521.645 33.6022H521.175V35.6022H521.645V33.6022ZM522.001 34.0374L499.293 0.860605L497.643 1.99022L520.35 35.167L522.001 34.0374ZM498.468 0.425412H486.977V2.42541H498.468V0.425412ZM485.977 1.42541V58H487.977V1.42541H485.977ZM486.977 59H500.291V57H486.977V59ZM501.291 58V24.768H499.291V58H501.291ZM500.291 25.768H500.651V23.768H500.291V25.768ZM499.828 25.3363L522.784 58.5684L524.429 57.4316L501.473 24.1996L499.828 25.3363ZM523.606 59H534.932V57H523.606V59ZM535.932 58V1.42541H533.932V58H535.932ZM540.427 1.42541V0.425412H538.732L539.552 1.90892L540.427 1.42541ZM561.118 38.884H562.118V38.6262L561.993 38.4005L561.118 38.884ZM561.118 58H560.118V59H561.118V58ZM574.35 58V59H575.35V58H574.35ZM574.35 38.884L573.475 38.4L573.35 38.6259V38.884H574.35ZM595.068 1.42541L595.943 1.90941L596.764 0.425412H595.068V1.42541ZM580.151 1.42541V0.425412H579.539L579.26 0.970356L580.151 1.42541ZM567.996 25.2099V26.2099H568.608L568.886 25.665L567.996 25.2099ZM567.499 25.2099L566.608 25.665L566.887 26.2099H567.499V25.2099ZM555.344 1.42541L556.235 0.970356L555.956 0.425412H555.344V1.42541ZM539.552 1.90892L560.242 39.3675L561.993 38.4005L541.302 0.941908L539.552 1.90892ZM560.118 38.884V58H562.118V38.884H560.118ZM561.118 59H574.35V57H561.118V59ZM575.35 58V38.884H573.35V58H575.35ZM575.225 39.368L595.943 1.90941L594.193 0.941414L573.475 38.4L575.225 39.368ZM595.068 0.425412H580.151V2.42541H595.068V0.425412ZM579.26 0.970356L567.106 24.7549L568.886 25.665L581.041 1.88047L579.26 0.970356ZM567.996 24.2099H567.499V26.2099H567.996V24.2099ZM568.389 24.7549L556.235 0.970356L554.454 1.88047L566.608 25.665L568.389 24.7549ZM555.344 0.425412H540.427V2.42541H555.344V0.425412Z" fill="white"/>
</svg>
