<svg width="161" height="975" viewBox="0 0 161 975" fill="none" xmlns="http://www.w3.org/2000/svg">
<path d="M58.4834 907.138L58.4834 869.99C21.4116 873.941 0.292802 901.517 0.292803 938.816C0.292805 980.294 28.9323 1012.35 80.2099 1012.35C131.336 1012.35 160.127 980.978 160.127 938.816C160.127 896.655 131.564 872.953 103.836 869.99L103.608 907.138C118.877 909.797 127.917 921.42 127.917 938.133C127.917 960.543 111.584 974.977 80.2099 974.977C49.9751 974.977 32.5028 960.847 32.5028 937.905C32.5028 920.584 42.5304 909.113 58.4834 907.138ZM80.2099 703.236C28.9323 703.236 0.292795 735.598 0.292796 777.228C0.292798 819.161 28.9323 851.219 80.2099 851.219C131.26 851.219 160.127 819.161 160.127 777.228C160.127 735.598 131.488 703.236 80.2099 703.236ZM80.2099 813.844C49.2914 813.844 32.5027 799.942 32.5027 777.228C32.5027 754.514 49.2914 740.688 80.2099 740.688C111.128 740.688 127.917 754.514 127.917 777.228C127.917 799.942 111.128 813.844 80.2099 813.844ZM2.41986 550.003L2.41986 586.543L93.6561 586.543L93.6561 587.834L2.41987 650.279L2.41987 681.881L158 681.881L158 645.265L66.6119 645.265L66.6119 644.277L158 581.149L158 550.003L2.41986 550.003ZM32.3508 532.081L32.3508 484.754L158 484.754L158 448.594L32.3508 448.594L32.3508 401.343L2.41986 401.343L2.41986 532.081L32.3508 532.081ZM158 370.589L124.802 360.106L124.802 305.865L158 295.382L158 255.955L2.41985 308.676L2.41985 357.295L158 410.016L158 370.589ZM96.7707 351.217L40.9351 333.593L40.9351 332.378L96.7707 314.753L96.7707 351.217ZM58.4834 144.013L58.4834 106.865C21.4116 110.816 0.292768 138.392 0.29277 175.691C0.292772 217.169 28.9323 249.227 80.2099 249.227C131.336 249.227 160.127 217.853 160.127 175.691C160.127 133.53 131.563 109.828 103.836 106.865L103.608 144.013C118.877 146.672 127.917 158.295 127.917 175.008C127.917 197.418 111.584 211.852 80.2099 211.852C49.9751 211.852 32.5027 197.722 32.5027 174.78C32.5027 157.459 42.5303 145.988 58.4834 144.013ZM32.3508 91.4369L32.3508 44.1096L158 44.1096L158 7.94936L32.3508 7.94936L32.3508 -39.302L2.41984 -39.302L2.41984 91.4369L32.3508 91.4369Z" fill="#DEDEDE" fill-opacity="0.5"/>
</svg>
