<svg width="56" height="43" viewBox="0 0 56 43" fill="none" xmlns="http://www.w3.org/2000/svg">
<path d="M53.786 0V3.15419C49.2713 4.78493 45.7333 7.35978 43.1721 10.8787C40.6109 14.3548 39.3302 17.981 39.3302 21.7575C39.3302 22.5729 39.4605 23.1737 39.7209 23.5599C39.8946 23.8174 40.0899 23.9461 40.307 23.9461C40.524 23.9461 40.8496 23.7959 41.2837 23.4955C42.6729 22.5085 44.431 22.015 46.5581 22.015C49.0326 22.015 51.2248 23.0235 53.1349 25.0404C55.045 27.0145 56 29.3748 56 32.1213C56 34.9965 54.893 37.5284 52.6791 39.7171C50.5085 41.9057 47.8605 43 44.7349 43C41.0884 43 37.9411 41.5195 35.293 38.5584C32.645 35.5973 31.3209 31.6277 31.3209 26.6497C31.3209 20.8563 33.1225 15.6637 36.7256 11.0719C40.3287 6.48004 46.0155 2.78942 53.786 0ZM22.4651 0V3.15419C17.9504 4.78493 14.4124 7.35978 11.8512 10.8787C9.28992 14.3548 8.0093 17.981 8.0093 21.7575C8.0093 22.5729 8.13953 23.1737 8.4 23.5599C8.57364 23.8174 8.76899 23.9461 8.98605 23.9461C9.2031 23.9461 9.52868 23.7959 9.96279 23.4955C11.3519 22.5085 13.1101 22.015 15.2372 22.015C17.7116 22.015 19.9039 23.0235 21.814 25.0404C23.724 27.0145 24.6791 29.3748 24.6791 32.1213C24.6791 34.9965 23.5721 37.5284 21.3581 39.7171C19.1876 41.9057 16.5395 43 13.414 43C9.76744 43 6.62015 41.5195 3.97209 38.5584C1.32403 35.5973 0 31.6277 0 26.6497C0 20.8563 1.80155 15.6637 5.40465 11.0719C9.00775 6.48004 14.6946 2.78942 22.4651 0Z" fill="#007481"/>
</svg>
