<svg width="30" height="102" viewBox="0 0 30 102" fill="none" xmlns="http://www.w3.org/2000/svg">
<g clip-path="url(#clip0_43_43)">
<path d="M4.47755e-06 28.4707L5.40154 25.5916L23.6249 15.9182L5.40154 6.24478L5.57493e-06 3.36566L5.72205e-06 -1.31134e-06L3.83389 2.04343L30 15.9182L3.83939 29.7929L4.33043e-06 31.8364L4.47755e-06 28.4707Z" fill="black"/>
<path d="M30 40.3478L30 37.3313L5.72205e-06 37.3313L5.59019e-06 40.3478L30 40.3478Z" fill="black"/>
<path d="M-2.52294e-05 55.768C-0.00625075 54.2519 0.331077 52.7557 0.984577 51.4007C1.92697 49.4272 3.47569 47.8377 5.38502 46.8845C6.69584 46.1937 8.14559 45.8366 9.61494 45.8428L30.022 45.8428L30.022 48.8593L8.85036 48.8593L8.73485 48.8593C7.27258 49.07 5.91633 49.7715 4.87198 50.8573C3.82763 51.943 3.1522 53.3536 2.94826 54.8751L2.94826 54.9953L2.90426 71.4115L-2.59132e-05 71.4115L-2.52294e-05 55.768Z" fill="black"/>
<path d="M2.89892 102L2.89893 76.9178L0.000141144 76.9178L0.000140047 102L2.89892 102Z" fill="black"/>
<path d="M16.4468 102L16.4468 76.9179L13.548 76.9179L13.548 102L16.4468 102Z" fill="black"/>
<path d="M30 102L30 76.9178L27.1012 76.9178L27.1012 102L30 102Z" fill="black"/>
</g>
<defs>
<clipPath id="clip0_43_43">
<rect width="102" height="30" fill="white" transform="translate(30) rotate(90)"/>
</clipPath>
</defs>
</svg>
