<svg width="30" height="102" viewBox="0 0 30 102" fill="none" xmlns="http://www.w3.org/2000/svg">
<g clip-path="url(#clip0_45_163)">
<path d="M4.47755e-06 28.4707L5.40154 25.5916L23.6249 15.9182L5.40154 6.24478L5.57493e-06 3.36566L5.72205e-06 -1.31134e-06L3.83389 2.04343L30 15.9182L3.83939 29.7929L4.33043e-06 31.8364L4.47755e-06 28.4707Z" fill="white"/>
<path d="M30 40.3478L30 37.3313L3.8147e-06 37.3313L3.68284e-06 40.3478L30 40.3478Z" fill="white"/>
<path d="M3.38085e-06 55.768C-0.00622214 54.2519 0.331106 52.7557 0.984606 51.4007C1.92699 49.4272 3.47572 47.8377 5.38505 46.8845C6.69587 46.1937 8.14562 45.8366 9.61497 45.8428L30.022 45.8428L30.022 48.8593L8.85039 48.8593L8.73488 48.8593C7.27261 49.07 5.91635 49.7715 4.87201 50.8573C3.82765 51.943 3.15223 53.3536 2.94829 54.8751L2.94829 54.9953L2.90429 71.4115L2.69705e-06 71.4115L3.38085e-06 55.768Z" fill="white"/>
<path d="M2.89879 102L2.8988 76.9178L1.14441e-05 76.9178L1.03477e-05 102L2.89879 102Z" fill="white"/>
<path d="M16.4466 102L16.4466 76.9179L13.5478 76.9179L13.5478 102L16.4466 102Z" fill="white"/>
<path d="M30 102L30 76.9178L27.1012 76.9178L27.1012 102L30 102Z" fill="white"/>
</g>
<defs>
<clipPath id="clip0_45_163">
<rect width="102" height="30" fill="white" transform="translate(30) rotate(90)"/>
</clipPath>
</defs>
</svg>
