<svg width="444" height="59" viewBox="0 0 444 59" fill="none" xmlns="http://www.w3.org/2000/svg">
<path d="M32.8066 18.2762L31.811 18.3692L31.8956 19.2762H32.8066V18.2762ZM45.5691 18.2762V19.2762H46.5796L46.569 18.2657L45.5691 18.2762ZM2.00553 18.1381L3.00558 18.1413L3.00549 18.1302L2.00553 18.1381ZM17.7238 33.7735L17.9503 32.7995L17.95 32.7994L17.7238 33.7735ZM23.663 35.1547L23.4365 36.1287L23.4378 36.129L23.663 35.1547ZM32.8343 41.5912L33.8341 41.6064L33.8344 41.5904L33.8341 41.5744L32.8343 41.5912ZM13.3315 39.3812L14.33 39.3257L14.2775 38.3812H13.3315V39.3812ZM0.541437 39.3812V38.3812H-0.473536L-0.458453 39.3961L0.541437 39.3812ZM46.3425 41.6188L47.3426 41.6214L47.3425 41.6157L46.3425 41.6188ZM29.105 24.7127L28.8805 25.6872L28.8894 25.6892L29.105 24.7127ZM24.1878 23.5801L24.4123 22.6056L24.4053 22.604L24.1878 23.5801ZM15.7624 17.2265L16.7622 17.2501L16.7623 17.2426L16.7624 17.2351L15.7624 17.2265ZM32.8066 19.2762H45.5691V17.2762H32.8066V19.2762ZM46.569 18.2657C46.5108 12.7321 44.2581 8.04436 40.2808 4.75684C36.319 1.48219 30.7172 -0.34807 24.0221 -0.34807V1.65193C30.3657 1.65193 35.4821 3.38521 39.0065 6.2984C42.5154 9.19872 44.5169 13.3231 44.5691 18.2868L46.569 18.2657ZM24.0221 -0.34807C17.4398 -0.34807 11.6836 1.45298 7.55967 4.68152C3.41724 7.92453 0.961525 12.5834 1.00556 18.146L3.00549 18.1302C2.96665 13.2232 5.11039 9.139 8.79255 6.25632C12.4932 3.35917 17.7867 1.65193 24.0221 1.65193V-0.34807ZM1.00553 18.1349C0.990864 22.6814 2.58777 26.2926 5.51203 29.0458C8.40418 31.7687 12.5307 33.5938 17.4975 34.7475L17.95 32.7994C13.1654 31.688 9.41902 29.9772 6.88299 27.5896C4.37908 25.2322 2.99256 22.1584 3.00552 18.1413L1.00553 18.1349ZM17.4972 34.7475L23.4365 36.1287L23.8895 34.1807L17.9503 32.7995L17.4972 34.7475ZM23.4378 36.129C26.5253 36.8426 28.6513 37.5978 29.9992 38.5077C31.2783 39.3711 31.813 40.3367 31.8344 41.608L33.8341 41.5744C33.8002 39.5583 32.8571 38.0239 31.1182 36.85C29.4481 35.7226 27.0161 34.9033 23.8882 34.1804L23.4378 36.129ZM31.8344 41.5759C31.812 43.0408 31.1412 44.2679 29.8424 45.1637C28.5135 46.0803 26.4884 46.6685 23.8011 46.6685V48.6685C26.7492 48.6685 29.2131 48.0274 30.978 46.8101C32.7732 45.5718 33.8013 43.7603 33.8341 41.6064L31.8344 41.5759ZM23.8011 46.6685C20.9035 46.6685 18.6 45.9954 17.0077 44.7809C15.4437 43.5878 14.4674 41.799 14.33 39.3257L12.333 39.4367C12.4995 42.433 13.7193 44.7879 15.7947 46.3711C17.842 47.9327 20.6214 48.6685 23.8011 48.6685V46.6685ZM13.3315 38.3812H0.541437V40.3812H13.3315V38.3812ZM-0.458453 39.3961C-0.358021 46.1537 2.07394 51.2979 6.4131 54.7272C10.7184 58.1298 16.7765 59.7459 23.9669 59.7459V57.7459C17.0412 57.7459 11.4833 56.1851 7.6532 53.1581C3.857 50.1579 1.63426 45.6198 1.54133 39.3664L-0.458453 39.3961ZM23.9669 59.7459C31.1207 59.7459 36.9487 58.107 41.0158 54.9845C45.1154 51.8369 47.328 47.2538 47.3425 41.6214L45.3425 41.6162C45.3295 46.6744 43.3708 50.6548 39.7978 53.3981C36.1921 56.1664 30.8461 57.7459 23.9669 57.7459V59.7459ZM47.3425 41.6157C47.3279 36.812 45.6366 32.9204 42.4826 29.9328C39.3576 26.9727 34.862 24.9598 29.3206 23.7362L28.8894 25.6892C34.232 26.8689 38.3413 28.7648 41.1072 31.3848C43.8441 33.9773 45.3295 37.3372 45.3425 41.6218L47.3425 41.6157ZM29.3294 23.7382L24.4123 22.6056L23.9634 24.5546L28.8805 25.6872L29.3294 23.7382ZM24.4053 22.604C21.8937 22.0444 19.9199 21.3655 18.6007 20.4675C17.3341 19.6054 16.7304 18.5926 16.7622 17.2501L14.7627 17.2029C14.7115 19.3688 15.7792 20.9664 17.4753 22.1209C19.1188 23.2395 21.3991 23.9832 23.9704 24.5562L24.4053 22.604ZM16.7624 17.2351C16.7734 15.953 17.3152 14.8707 18.4264 14.0757C19.5712 13.2568 21.3862 12.7017 23.9669 12.7017V10.7017C21.1331 10.7017 18.8597 11.3067 17.2628 12.4491C15.6323 13.6155 14.779 15.2956 14.7625 17.2179L16.7624 17.2351ZM23.9669 12.7017C26.5513 12.7017 28.4257 13.2801 29.6774 14.2313C30.9052 15.1642 31.6398 16.5353 31.811 18.3692L33.8023 18.1833C33.5867 15.8736 32.6225 13.9573 30.8875 12.6389C29.1766 11.3387 26.8244 10.7017 23.9669 10.7017V12.7017ZM51.1522 12.3094H50.1522V13.3094H51.1522V12.3094ZM68.3621 12.3094H69.3621V11.3094H68.3621V12.3094ZM68.3621 58H67.3621V59H68.3621V58ZM81.5113 58V59H82.5113V58H81.5113ZM81.5113 12.3094V11.3094H80.5113V12.3094H81.5113ZM98.6936 12.3094V13.3094H99.6936V12.3094H98.6936ZM98.6936 1.42541H99.6936V0.425412H98.6936V1.42541ZM51.1522 1.42541V0.425412H50.1522V1.42541H51.1522ZM51.1522 13.3094H68.3621V11.3094H51.1522V13.3094ZM67.3621 12.3094V58H69.3621V12.3094H67.3621ZM68.3621 59H81.5113V57H68.3621V59ZM82.5113 58V12.3094H80.5113V58H82.5113ZM81.5113 13.3094H98.6936V11.3094H81.5113V13.3094ZM99.6936 12.3094V1.42541H97.6936V12.3094H99.6936ZM98.6936 0.425412H51.1522V2.42541H98.6936V0.425412ZM50.1522 1.42541V12.3094H52.1522V1.42541H50.1522ZM109.877 58V59H110.61L110.83 58.3011L109.877 58ZM113.689 45.9282V44.9282H112.956L112.735 45.627L113.689 45.9282ZM133.413 45.9282L134.366 45.627L134.146 44.9282H133.413V45.9282ZM137.225 58L136.271 58.3011L136.492 59H137.225V58ZM151.562 58V59H152.957L152.509 57.6791L151.562 58ZM132.391 1.42541L133.338 1.10447L133.108 0.425412H132.391V1.42541ZM114.711 1.42541V0.425412H113.994L113.764 1.10447L114.711 1.42541ZM95.5397 58L94.5926 57.6791L94.145 59H95.5397V58ZM116.921 35.7348L115.967 35.4338L115.557 36.7348H116.921V35.7348ZM123.33 15.4309V14.4309H122.597L122.376 15.1299L123.33 15.4309ZM123.772 15.4309L124.725 15.1299L124.505 14.4309H123.772V15.4309ZM130.181 35.7348V36.7348H131.545L131.134 35.4338L130.181 35.7348ZM110.83 58.3011L114.642 46.2293L112.735 45.627L108.923 57.6989L110.83 58.3011ZM113.689 46.9282H133.413V44.9282H113.689V46.9282ZM132.459 46.2293L136.271 58.3011L138.178 57.6989L134.366 45.627L132.459 46.2293ZM137.225 59H151.562V57H137.225V59ZM152.509 57.6791L133.338 1.10447L131.443 1.74635L150.615 58.3209L152.509 57.6791ZM132.391 0.425412H114.711V2.42541H132.391V0.425412ZM113.764 1.10447L94.5926 57.6791L96.4868 58.3209L115.658 1.74635L113.764 1.10447ZM95.5397 59H109.877V57H95.5397V59ZM117.875 36.0358L124.283 15.7319L122.376 15.1299L115.967 35.4338L117.875 36.0358ZM123.33 16.4309H123.772V14.4309H123.33V16.4309ZM122.818 15.7319L129.227 36.0358L131.134 35.4338L124.725 15.1299L122.818 15.7319ZM130.181 34.7348H116.921V36.7348H130.181V34.7348ZM191.909 19.8508L190.945 20.1173L191.148 20.8508H191.909V19.8508ZM205.417 19.8508V20.8508H206.55L206.409 19.7265L205.417 19.8508ZM205.997 27.1989H206.997V26.1989H205.997V27.1989ZM181.743 27.1989V26.1989H180.743V27.1989H181.743ZM181.743 36.9779H180.743V37.9779H181.743V36.9779ZM193.124 36.9779L194.124 37.0003L194.147 35.9779H193.124V36.9779ZM191.909 20.8508H205.417V18.8508H191.909V20.8508ZM206.409 19.7265C204.926 7.88636 194.353 -0.34807 180.942 -0.34807V1.65193C193.553 1.65193 203.091 9.32911 204.425 19.9752L206.409 19.7265ZM180.942 -0.34807C173.16 -0.34807 166.159 2.40653 161.103 7.59565C156.046 12.7862 153.008 20.3364 153.008 29.7956H155.008C155.008 20.7741 157.896 13.7525 162.535 8.99136C167.176 4.22882 173.641 1.65193 180.942 1.65193V-0.34807ZM153.008 29.7956C153.008 38.9508 155.816 46.4593 160.787 51.6864C165.762 56.9176 172.819 59.7735 181.135 59.7735V57.7735C173.291 57.7735 166.785 55.0907 162.236 50.3081C157.684 45.5214 155.008 38.5409 155.008 29.7956H153.008ZM181.135 59.7735C188.581 59.7735 195.057 57.4409 199.68 53.0819C204.312 48.7157 206.997 42.3971 206.997 34.6022H204.997C204.997 41.9178 202.49 47.6848 198.308 51.6267C194.12 55.5757 188.165 57.7735 181.135 57.7735V59.7735ZM206.997 34.6022V27.1989H204.997V34.6022H206.997ZM205.997 26.1989H181.743V28.1989H205.997V26.1989ZM180.743 27.1989V36.9779H182.743V27.1989H180.743ZM181.743 37.9779H193.124V35.9779H181.743V37.9779ZM192.125 36.9555C192.061 39.7987 191.057 42.0356 189.282 43.5737C187.493 45.1243 184.809 46.0608 181.218 46.0608V48.0608C185.142 48.0608 188.341 47.0359 190.592 45.0851C192.857 43.1219 194.05 40.3173 194.124 37.0003L192.125 36.9555ZM181.218 46.0608C177.208 46.0608 174.108 44.5871 171.984 41.8818C169.834 39.1435 168.599 35.0328 168.599 29.6298H166.599C166.599 35.3042 167.892 39.909 170.411 43.1168C172.955 46.3576 176.664 48.0608 181.218 48.0608V46.0608ZM168.599 29.6298C168.599 24.2948 169.891 20.2251 172.067 17.5103C174.223 14.8217 177.324 13.3646 181.191 13.3646V11.3646C176.77 11.3646 173.075 13.0568 170.507 16.2591C167.96 19.4352 166.599 23.998 166.599 29.6298H168.599ZM181.191 13.3646C183.829 13.3646 185.972 14.0197 187.588 15.1631C189.199 16.3026 190.352 17.971 190.945 20.1173L192.873 19.5844C192.168 17.0345 190.765 14.9599 188.743 13.5302C186.727 12.1046 184.16 11.3646 181.191 11.3646V13.3646ZM213.867 58H212.867V59H213.867V58ZM253.066 58V59H254.066V58H253.066ZM253.066 47.116H254.066V46.116H253.066V47.116ZM227.182 47.116H226.182V48.116H227.182V47.116ZM227.182 35.1271V34.1271H226.182V35.1271H227.182ZM251.022 35.1271V36.1271H252.022V35.1271H251.022ZM251.022 24.2707H252.022V23.2707H251.022V24.2707ZM227.182 24.2707H226.182V25.2707H227.182V24.2707ZM227.182 12.3094V11.3094H226.182V12.3094H227.182ZM253.038 12.3094V13.3094H254.038V12.3094H253.038ZM253.038 1.42541H254.038V0.425412H253.038V1.42541ZM213.867 1.42541V0.425412H212.867V1.42541H213.867ZM213.867 59H253.066V57H213.867V59ZM254.066 58V47.116H252.066V58H254.066ZM253.066 46.116H227.182V48.116H253.066V46.116ZM228.182 47.116V35.1271H226.182V47.116H228.182ZM227.182 36.1271H251.022V34.1271H227.182V36.1271ZM252.022 35.1271V24.2707H250.022V35.1271H252.022ZM251.022 23.2707H227.182V25.2707H251.022V23.2707ZM228.182 24.2707V12.3094H226.182V24.2707H228.182ZM227.182 13.3094H253.038V11.3094H227.182V13.3094ZM254.038 12.3094V1.42541H252.038V12.3094H254.038ZM253.038 0.425412H213.867V2.42541H253.038V0.425412ZM212.867 1.42541V58H214.867V1.42541H212.867ZM291.049 58V59H291.781L292.002 58.3011L291.049 58ZM294.861 45.9282V44.9282H294.128L293.907 45.627L294.861 45.9282ZM314.585 45.9282L315.538 45.627L315.317 44.9282H314.585V45.9282ZM318.397 58L317.443 58.3011L317.664 59H318.397V58ZM332.734 58V59H334.128L333.681 57.6791L332.734 58ZM313.562 1.42541L314.51 1.10447L314.279 0.425412H313.562V1.42541ZM295.883 1.42541V0.425412H295.166L294.936 1.10447L295.883 1.42541ZM276.712 58L275.764 57.6791L275.317 59H276.712V58ZM298.093 35.7348L297.139 35.4338L296.729 36.7348H298.093V35.7348ZM304.502 15.4309V14.4309H303.769L303.548 15.1299L304.502 15.4309ZM304.944 15.4309L305.897 15.1299L305.677 14.4309H304.944V15.4309ZM311.352 35.7348V36.7348H312.717L312.306 35.4338L311.352 35.7348ZM292.002 58.3011L295.814 46.2293L293.907 45.627L290.095 57.6989L292.002 58.3011ZM294.861 46.9282H314.585V44.9282H294.861V46.9282ZM313.631 46.2293L317.443 58.3011L319.35 57.6989L315.538 45.627L313.631 46.2293ZM318.397 59H332.734V57H318.397V59ZM333.681 57.6791L314.51 1.10447L312.615 1.74635L331.787 58.3209L333.681 57.6791ZM313.562 0.425412H295.883V2.42541H313.562V0.425412ZM294.936 1.10447L275.764 57.6791L277.659 58.3209L296.83 1.74635L294.936 1.10447ZM276.712 59H291.049V57H276.712V59ZM299.046 36.0358L305.455 15.7319L303.548 15.1299L297.139 35.4338L299.046 36.0358ZM304.502 16.4309H304.944V14.4309H304.502V16.4309ZM303.99 15.7319L310.399 36.0358L312.306 35.4338L305.897 15.1299L303.99 15.7319ZM311.352 34.7348H298.093V36.7348H311.352V34.7348ZM351.87 1.42541H352.87V0.425412H351.87V1.42541ZM338.555 1.42541V0.425412H337.555V1.42541H338.555ZM338.555 58H337.555V59H338.555V58ZM351.87 58V59H352.87V58H351.87ZM351.87 0.425412H338.555V2.42541H351.87V0.425412ZM337.555 1.42541V58H339.555V1.42541H337.555ZM338.555 59H351.87V57H338.555V59ZM352.87 58V1.42541H350.87V58H352.87ZM360.273 58H359.273V59H360.273V58ZM397.262 58V59H398.262V58H397.262ZM397.262 47.116H398.262V46.116H397.262V47.116ZM373.588 47.116H372.588V48.116H373.588V47.116ZM373.588 1.42541H374.588V0.425412H373.588V1.42541ZM360.273 1.42541V0.425412H359.273V1.42541H360.273ZM360.273 59H397.262V57H360.273V59ZM398.262 58V47.116H396.262V58H398.262ZM397.262 46.116H373.588V48.116H397.262V46.116ZM374.588 47.116V1.42541H372.588V47.116H374.588ZM373.588 0.425412H360.273V2.42541H373.588V0.425412ZM359.273 1.42541V58H361.273V1.42541H359.273ZM404.102 58H403.102V59H404.102V58ZM443.3 58V59H444.3V58H443.3ZM443.3 47.116H444.3V46.116H443.3V47.116ZM417.416 47.116H416.416V48.116H417.416V47.116ZM417.416 35.1271V34.1271H416.416V35.1271H417.416ZM441.256 35.1271V36.1271H442.256V35.1271H441.256ZM441.256 24.2707H442.256V23.2707H441.256V24.2707ZM417.416 24.2707H416.416V25.2707H417.416V24.2707ZM417.416 12.3094V11.3094H416.416V12.3094H417.416ZM443.273 12.3094V13.3094H444.273V12.3094H443.273ZM443.273 1.42541H444.273V0.425412H443.273V1.42541ZM404.102 1.42541V0.425412H403.102V1.42541H404.102ZM404.102 59H443.3V57H404.102V59ZM444.3 58V47.116H442.3V58H444.3ZM443.3 46.116H417.416V48.116H443.3V46.116ZM418.416 47.116V35.1271H416.416V47.116H418.416ZM417.416 36.1271H441.256V34.1271H417.416V36.1271ZM442.256 35.1271V24.2707H440.256V35.1271H442.256ZM441.256 23.2707H417.416V25.2707H441.256V23.2707ZM418.416 24.2707V12.3094H416.416V24.2707H418.416ZM417.416 13.3094H443.273V11.3094H417.416V13.3094ZM444.273 12.3094V1.42541H442.273V12.3094H444.273ZM443.273 0.425412H404.102V2.42541H443.273V0.425412ZM403.102 1.42541V58H405.102V1.42541H403.102Z" fill="white"/>
</svg>
