<svg width="444" height="59" viewBox="0 0 444 59" fill="none" xmlns="http://www.w3.org/2000/svg">
<path d="M32.8066 18.2762H45.5691C45.4586 7.77901 37.0608 0.65193 24.0221 0.65193C11.2044 0.65193 1.92265 7.66851 2.00553 18.1381C1.9779 26.7017 7.97238 31.5083 17.7238 33.7735L23.663 35.1547C29.8785 36.5912 32.779 38.3039 32.8343 41.5912C32.779 45.2099 29.4365 47.6685 23.8011 47.6685C17.7238 47.6685 13.6354 44.8508 13.3315 39.3812H0.541437C0.734807 52.3923 9.85083 58.7459 23.9669 58.7459C38 58.7459 46.3149 52.3094 46.3425 41.6188C46.3149 32.5304 39.9889 27.116 29.105 24.7127L24.1878 23.5801C19.105 22.4475 15.6796 20.7348 15.7624 17.2265C15.7901 14.0221 18.5525 11.7017 23.9669 11.7017C29.4088 11.7017 32.4199 14.1326 32.8066 18.2762ZM51.1522 12.3094H68.3621V58H81.5113V12.3094H98.6936V1.42541H51.1522V12.3094ZM109.877 58L113.689 45.9282H133.413L137.225 58H151.562L132.391 1.42541H114.711L95.5397 58H109.877ZM116.921 35.7348L123.33 15.4309H123.772L130.181 35.7348H116.921ZM191.909 19.8508H205.417C204.008 8.60773 193.953 0.65193 180.942 0.65193C165.859 0.65193 154.008 11.3149 154.008 29.7956C154.008 47.6961 164.975 58.7735 181.135 58.7735C195.61 58.7735 205.997 49.7127 205.997 34.6022V27.1989H181.743V36.9779H193.124C192.986 43.1381 188.732 47.0608 181.218 47.0608C172.655 47.0608 167.599 40.7072 167.599 29.6298C167.599 18.663 172.903 12.3646 181.191 12.3646C186.798 12.3646 190.61 15.1547 191.909 19.8508ZM213.867 58H253.066V47.116H227.182V35.1271H251.022V24.2707H227.182V12.3094H253.038V1.42541H213.867V58ZM291.049 58L294.861 45.9282H314.585L318.397 58H332.734L313.562 1.42541H295.883L276.712 58H291.049ZM298.093 35.7348L304.502 15.4309H304.944L311.352 35.7348H298.093ZM351.87 1.42541H338.555V58H351.87V1.42541ZM360.273 58H397.262V47.116H373.588V1.42541H360.273V58ZM404.102 58H443.3V47.116H417.416V35.1271H441.256V24.2707H417.416V12.3094H443.273V1.42541H404.102V58Z" fill="#007481"/>
</svg>
